<?xml version="1.0" encoding="utf-8"?>
<!-- Generator: Adobe Illustrator 18.0.0, SVG Export Plug-In . SVG Version: 6.00 Build 0)  -->
<!--<!DOCTYPE svg PUBLIC "-//W3C//DTD SVG 1.1 Tiny//EN" "http://www.w3.org/Graphics/SVG/1.1/DTD/svg11-tiny.dtd">-->
<svg version="1.1" baseProfile="tiny" xmlns="http://www.w3.org/2000/svg" xmlns:xlink="http://www.w3.org/1999/xlink" viewBox="0 0 1024 1024" width="128px" height="128px" xml:space="preserve">
 <g>
  <path d="M808.5,1003 L223.8,1003c-105.2,0 -190.8,-85.6 -190.8,-190.8l0,-584.7c0,-105.2 85.6,-190.8 190.8,-190.8L808.5,36.6c105.2,0 190.8,85.6 190.8,190.8l0,584.7C999.3,917.4 913.7,1003 808.5,1003z" id="svg_1" stroke-width="1.5" stroke="#000" fill="none"/>
  <path d="M223.8,67.3c-88.3,0 -160.1,71.8 -160.1,160.1l0,584.7c0,88.3 71.8,160.1 160.1,160.1L808.5,972.3c88.3,0 160.1,-71.8 160.1,-160.1l0,-584.7c0,-88.3 -71.8,-160.1 -160.1,-160.1L223.8,67.3z" id="svg_2" stroke-width="1.5" stroke="#000" fill="none"/>
  <path d="M789,847l-28.7,0c-30,0 -54.3,-24.4 -54.3,-54.3L706,574.9 320.2,574.9l0,217.8c0,30 -24.4,54.3 -54.3,54.3l-22.6,0c-30,0 -54.3,-24.4 -54.3,-54.3l0,-545.8c0,-30 24.4,-54.3 54.3,-54.3l22.6,0c30,0 54.3,24.4 54.3,54.3l0,209.8 385.8,0L706,246.9c0,-30 24.4,-54.3 54.3,-54.3l28.7,0c30,0 54.3,24.4 54.3,54.3l0,545.8C843.4,822.7 819,847 789,847z" id="svg_3" stroke-width="1.5" stroke="#000" fill="none"/>
  <path d="M289.5,544.2l447.2,0 0,248.5c0,12.8 10.8,23.6 23.6,23.6l28.7,0c12.8,0 23.6,-10.8 23.6,-23.6l0,-545.8c0,-12.8 -10.8,-23.6 -23.6,-23.6l-28.7,0c-12.8,0 -23.6,10.8 -23.6,23.6l0,240.5L289.5,487.4 289.5,246.9c0,-12.8 -10.8,-23.6 -23.6,-23.6l-22.6,0c-12.8,0 -23.6,10.8 -23.6,23.6l0,545.8c0,12.8 10.8,23.6 23.6,23.6l22.6,0c12.8,0 23.6,-10.8 23.6,-23.6L289.5,544.2z" id="svg_4" stroke-width="1.5" stroke="#000" fill="none"/>
 </g>
</svg>